<svg xmlns="http://www.w3.org/2000/svg" width="237" height="294" viewBox="0 0 237 294" version="1.1" class="c-logo__image">
	<g class="c-logo__image" stroke="none" stroke-width="1" fill="none" fill-rule="evenodd">
		<g id="VARIATION-01" transform="translate(-522.000000, -153.000000)" fill="#FFFFFF" class="c-logo__fill js-logo-fill">
			<g id="Logo-Copy" transform="translate(522.000000, 153.000000)">
				<path d="M151.78 139.51C151.78 157.21 140.38 169.1 123.41 169.1L120.17 169.1C112.71 169.1 106.79 168.95 95.99 167.09L95.99 109.95C105.55 108.59 113.43 108.02 122.47 108.02 141.09 108.02 151.78 119.5 151.78 139.51L151.78 139.51ZM220.41 227.89C205.94 254.43 123.58 291.7 120.07 293.27L118.46 294 116.85 293.24C113.44 291.62 33.07 253.34 16.74 228.14 -6 193.05-2.76 101.62 16.59 66.12 31.06 39.57 113.42 2.3 116.92 0.73L118.54 0 120.14 0.76C123.56 2.38 203.93 40.66 220.26 65.87 243 100.96 239.76 192.39 220.41 227.89L220.41 227.89ZM172.14 139.08C171.72 108.8 152.82 89.24 123.98 89.24 108.81 89.24 93.87 90.81 78.31 94.04L75.26 94.67 75.26 207.45 95.8 218.63 95.8 185.95C107.82 187.88 114.77 187.88 124.74 187.88 152.64 187.88 172.14 167.83 172.14 139.08L172.14 139.08Z" id="Imported-Layers-Copy-4"></path>
			</g>
		</g>
	</g>
</svg>
